<?xml version="1.0" encoding="utf-8"?>
<!-- Generator: Adobe Illustrator 16.0.0, SVG Export Plug-In . SVG Version: 6.00 Build 0)  -->
<!DOCTYPE svg PUBLIC "-//W3C//DTD SVG 1.1//EN" "http://www.w3.org/Graphics/SVG/1.1/DTD/svg11.dtd">
<svg version="1.1" id="图层_1" xmlns="http://www.w3.org/2000/svg" xmlns:xlink="http://www.w3.org/1999/xlink" x="0px" y="0px"
	 width="72px" height="72px" viewBox="0 0 72 72" enable-background="new 0 0 72 72" xml:space="preserve">
<path fill="#2DBDE5" d="M71.898,64.057c0,4.418-3.582,8-8,8h-56c-4.418,0-8-3.582-8-8v-56c0-4.418,3.582-8,8-8h56
	c4.418,0,8,3.582,8,8V64.057z"/>
<linearGradient id="SVGID_1_" gradientUnits="userSpaceOnUse" x1="15.6758" y1="18.3237" x2="68.3331" y2="70.9811">
	<stop  offset="0.3" style="stop-color:#2C9AC6"/>
	<stop  offset="0.9011" style="stop-color:#2C9AC6;stop-opacity:0.1413"/>
	<stop  offset="1" style="stop-color:#2C9AC6;stop-opacity:0"/>
</linearGradient>
<path fill="url(#SVGID_1_)" d="M72,64V40.25L42.221,13.998H20l-0.551,42.497l19.902,14.448L39.629,72H64C68.418,72,72,68.418,72,64z
	"/>
<g>
	<path fill="#FFFFFF" d="M44.719,12.545h-25.32v44h33V20.224L44.719,12.545z M44.146,15.863l4.934,4.932h-4.934V15.863z
		 M22.149,53.795V15.292H41.4v8.25h8.25v30.252H22.149L22.149,53.795z"/>
	<rect x="23.616" y="24.696" fill="none" width="27.5" height="12.547"/>
	<text transform="matrix(1 0 0 1 23.6162 34.833)" fill="#FFFFFF" font-family="'ArialRoundedMTBold'" font-size="11.7333">AFC</text>
	<g>
		<rect x="24.265" y="41.372" fill="#FFFFFF" width="23.467" height="1.956"/>
		<rect x="24.265" y="37.461" fill="#FFFFFF" width="23.467" height="1.956"/>
		<rect x="24.265" y="45.283" fill="#FFFFFF" width="23.467" height="1.956"/>
	</g>
</g>
</svg>
