<?xml version="1.0" encoding="utf-8"?>
<!-- Generator: Adobe Illustrator 16.0.0, SVG Export Plug-In . SVG Version: 6.00 Build 0)  -->
<!DOCTYPE svg PUBLIC "-//W3C//DTD SVG 1.1//EN" "http://www.w3.org/Graphics/SVG/1.1/DTD/svg11.dtd">
<svg version="1.1" id="图层_1" xmlns="http://www.w3.org/2000/svg" xmlns:xlink="http://www.w3.org/1999/xlink" x="0px" y="0px"
	 width="72px" height="72px" viewBox="0 0 72 72" enable-background="new 0 0 72 72" xml:space="preserve">
<g>
	<path fill="#FE8E1B" d="M72,64c0,4.418-3.582,8-8,8H8c-4.418,0-8-3.582-8-8V8c0-4.418,3.582-8,8-8h56c4.418,0,8,3.582,8,8V64z"/>
	
		<linearGradient id="SVGID_1_" gradientUnits="userSpaceOnUse" x1="-166.5576" y1="540.7969" x2="-113.9003" y2="593.4542" gradientTransform="matrix(1 0 0 1 182.0801 -522.3203)">
		<stop  offset="0.3" style="stop-color:#C8691D"/>
		<stop  offset="1" style="stop-color:#C8691D;stop-opacity:0"/>
	</linearGradient>
	<path fill="url(#SVGID_1_)" d="M72,64V42.535L44.141,13.002L20,13.998l-0.551,42.497L39.629,72H64C68.418,72,72,68.418,72,64z"/>
</g>
<g>
	<g id="document_x5F_text_2_">
		<path fill="#FFFFFF" d="M23.912,41.129v2.813h12.039c0.431-1.021,1.007-1.967,1.699-2.813H23.912z"/>
		<polygon fill="#FFFFFF" points="23.912,32.691 23.912,29.878 46.413,29.878 46.413,32.691 		"/>
		<path fill="#FFFFFF" d="M46.413,35.503H23.912v2.813h17.126c1.599-0.875,3.429-1.377,5.375-1.4V35.503z"/>
		<path fill="#FFFFFF" d="M37.314,55.191H21.101V15.813h19.688v8.438h8.438v12.997c0.994,0.24,1.938,0.602,2.813,1.082V20.855
			l-7.854-7.853H18.287v45h22.014C39.143,57.252,38.135,56.297,37.314,55.191z M43.598,16.397l5.045,5.044h-5.045V16.397z"/>
	</g>
	<path fill="none" stroke="#FFFFFF" stroke-width="2" stroke-miterlimit="10" d="M46.52,57.873c-5.065-0.014-9.17-4.113-9.181-9.18
		c0.011-5.068,4.112-9.17,9.181-9.185c5.064,0.015,9.166,4.113,9.182,9.185C55.686,53.76,51.584,57.859,46.52,57.873z"/>
	<g>
		<path fill="#FFFFFF" d="M51.335,52.626l-3.012-3.013c0.436-0.613,0.694-1.361,0.694-2.172c0-2.07-1.681-3.75-3.75-3.75
			c-2.07,0-3.75,1.68-3.75,3.75c0,2.072,1.68,3.75,3.75,3.75c0.811,0,1.559-0.258,2.17-0.695l3.015,3.013
			c0.243,0.244,0.639,0.244,0.883,0C51.579,53.266,51.579,52.87,51.335,52.626z M47.415,48.705
			c-0.216,0.365-0.519,0.668-0.886,0.884c-0.37,0.22-0.799,0.354-1.262,0.354c-1.381,0-2.5-1.119-2.5-2.5s1.119-2.5,2.5-2.5
			s2.5,1.119,2.5,2.5C47.77,47.905,47.634,48.333,47.415,48.705z"/>
	</g>
</g>
</svg>
