<?xml version="1.0" encoding="utf-8"?>
<!-- Generator: Adobe Illustrator 16.0.0, SVG Export Plug-In . SVG Version: 6.00 Build 0)  -->
<!DOCTYPE svg PUBLIC "-//W3C//DTD SVG 1.1//EN" "http://www.w3.org/Graphics/SVG/1.1/DTD/svg11.dtd">
<svg version="1.1" id="图层_1" xmlns="http://www.w3.org/2000/svg" xmlns:xlink="http://www.w3.org/1999/xlink" x="0px" y="0px"
	 width="72px" height="72px" viewBox="0 0 72 72" enable-background="new 0 0 72 72" xml:space="preserve">
<path fill="#FE5548" d="M71.898,64.057c0,4.418-3.582,8-8,8h-56c-4.418,0-8-3.582-8-8v-56c0-4.418,3.582-8,8-8h56
	c4.418,0,8,3.582,8,8V64.057z"/>
<linearGradient id="SVGID_1_" gradientUnits="userSpaceOnUse" x1="-75.9985" y1="140.5498" x2="-23.3086" y2="87.8599" gradientTransform="matrix(1 0 0 -1 91.04 159.3398)">
	<stop  offset="0.3" style="stop-color:#C93F3F"/>
	<stop  offset="1" style="stop-color:#C34C00;stop-opacity:0"/>
</linearGradient>
<path fill="url(#SVGID_1_)" d="M71.898,64V41.25L42.119,14.999H18.833L18.172,56.32L39.25,71.943L39.527,72h24.371
	C68.316,72,71.898,68.418,71.898,64z"/>
<g>
	<g id="background">
		<path fill="none" d="M17.95,15.056v42h42v-42H17.95z"/>
	</g>
	<polygon fill="#FFFFFF" points="37.965,41.307 23.2,41.307 23.2,43.932 37.252,43.932 37.879,41.738 	"/>
	<path d="M37.252,43.932"/>
	<rect x="23.2" y="30.806" fill="#FFFFFF" width="21" height="2.625"/>
	<polygon fill="#FFFFFF" points="23.2,36.056 23.2,38.682 40.938,38.682 43.563,36.056 	"/>
	<path fill="#FFFFFF" d="M46.824,54.432h-26.25V17.678H38.95v7.876h7.876v7.238l0.756-0.757l1.868-1.868v-7.782l-7.331-7.33H17.95
		v42h31.5V39.559l-2.626,2.625V54.432z M41.57,18.223l4.711,4.708H41.57V18.223z"/>
	<g>
		<path fill="#FFFFFF" d="M49.854,30.064l-2.655,2.656l-1.501,1.502l-7.122,7.122L36.9,47.191l5.848-1.674l6.127-6.129l3.036-3.034
			l2.114-2.119L49.854,30.064z M50.422,33.511l-0.641,0.642l-3.348,3.345l-4.83,4.83c-0.246,0.246-0.65,0.246-0.897,0
			c-0.247-0.248-0.247-0.651,0-0.898l6.328-6.327l1.165-1.165l1.324-1.325c0.248-0.248,0.652-0.248,0.898,0
			C50.669,32.859,50.669,33.264,50.422,33.511z"/>
		
			<rect x="51.497" y="27.689" transform="matrix(0.7069 0.7073 -0.7073 0.7069 36.9181 -29.8178)" fill="#FFFFFF" width="5.886" height="3.903"/>
	</g>
</g>
<path display="none" fill="#775344" d="M17.95,57.055"/>
</svg>
