<?xml version="1.0" encoding="utf-8"?>
<!-- Generator: Adobe Illustrator 16.0.0, SVG Export Plug-In . SVG Version: 6.00 Build 0)  -->
<!DOCTYPE svg PUBLIC "-//W3C//DTD SVG 1.1//EN" "http://www.w3.org/Graphics/SVG/1.1/DTD/svg11.dtd">
<svg version="1.1" id="图层_1" xmlns="http://www.w3.org/2000/svg" xmlns:xlink="http://www.w3.org/1999/xlink" x="0px" y="0px"
	 width="72px" height="72px" viewBox="0 0 72 72" enable-background="new 0 0 72 72" xml:space="preserve">
<path fill="#E5655C" d="M72,64c0,4.418-3.582,8-8,8H8c-4.418,0-8-3.582-8-8V8.001c0-4.418,3.582-8,8-8h56c4.418,0,8,3.582,8,8V64z"
	/>
<linearGradient id="SVGID_1_" gradientUnits="userSpaceOnUse" x1="-257.3018" y1="-376.3286" x2="-202.2793" y2="-431.3511" gradientTransform="matrix(1 0 0 -1 273.1201 -362.9805)">
	<stop  offset="0.3" style="stop-color:#BC4D4D"/>
	<stop  offset="1" style="stop-color:#BC4D4D;stop-opacity:0"/>
</linearGradient>
<path fill="url(#SVGID_1_)" d="M71.898,64V41.25L59.241,13.657L16.5,12.667L12,43l6.857,3.285V59.5L32,72h31.898
	C68.316,72,71.898,68.418,71.898,64z"/>
<path fill="#FFFFFF" d="M55.999,12H15.998C13.791,12,12,13.791,12,15.998v26.286c0,2.211,1.791,4.001,3.998,4.001h2.859V60
	l8.002-13.715h29.14c2.209,0,4.001-1.79,4.001-4.001V15.998C60,13.791,58.208,12,55.999,12z M53.143,39.428H32.571V36h20.572V39.428
	L53.143,39.428z M53.143,29.143H18.857v-3.429h34.286V29.143L53.143,29.143z M53.143,22.286H18.857v-3.429h34.286V22.286
	L53.143,22.286z"/>
</svg>
