<?xml version="1.0" encoding="utf-8"?>
<!-- Generator: Adobe Illustrator 16.0.0, SVG Export Plug-In . SVG Version: 6.00 Build 0)  -->
<!DOCTYPE svg PUBLIC "-//W3C//DTD SVG 1.1//EN" "http://www.w3.org/Graphics/SVG/1.1/DTD/svg11.dtd">
<svg version="1.1" id="图层_1" xmlns="http://www.w3.org/2000/svg" xmlns:xlink="http://www.w3.org/1999/xlink" x="0px" y="0px"
	 width="72px" height="72px" viewBox="0 0 72 72" enable-background="new 0 0 72 72" xml:space="preserve">
<path fill="#56B297" d="M72,64c0,4.418-3.582,8-8,8H8c-4.418,0-8-3.582-8-8V8.001c0-4.418,3.582-8,8-8h56c4.418,0,8,3.582,8,8V64z"
	/>
<linearGradient id="SVGID_1_" gradientUnits="userSpaceOnUse" x1="-256.8906" y1="-379.6265" x2="-203.7221" y2="-432.7949" gradientTransform="matrix(1 0 0 -1 273.1201 -362.9805)">
	<stop  offset="0.3" style="stop-color:#258265"/>
	<stop  offset="1" style="stop-color:#258265;stop-opacity:0"/>
</linearGradient>
<path fill="url(#SVGID_1_)" d="M71.898,64V41.25L57.833,14.999L18.875,14L18.75,27.813l-4.917-0.188V57.5L32,72h31.898
	C68.316,72,71.898,68.418,71.898,64z"/>
<path display="none" fill="#775344" d="M17.95,57.055"/>
<polyline fill="none" stroke="#FFFFFF" stroke-width="3" stroke-miterlimit="10" points="20.251,50.895 20.251,15.228 
	56.695,15.228 56.695,56.229 15.304,56.229 15.304,28.894 20.084,28.894 "/>
<g>
	<line fill="none" stroke="#FFFFFF" stroke-width="2" stroke-miterlimit="10" x1="21.792" y1="25.436" x2="50.208" y2="25.436"/>
	<line fill="none" stroke="#FFFFFF" stroke-width="2" stroke-miterlimit="10" x1="22.542" y1="30.395" x2="37.041" y2="30.395"/>
	<line fill="none" stroke="#FFFFFF" stroke-width="2" stroke-miterlimit="10" x1="22.542" y1="33.77" x2="37.041" y2="33.77"/>
	<line fill="none" stroke="#FFFFFF" stroke-width="2" stroke-miterlimit="10" x1="22.542" y1="37.326" x2="37.041" y2="37.326"/>
	<line fill="none" stroke="#FFFFFF" stroke-width="2" stroke-miterlimit="10" x1="22.542" y1="41.52" x2="37.041" y2="41.52"/>
	<line fill="none" stroke="#FFFFFF" stroke-width="2" stroke-miterlimit="10" x1="22.542" y1="46.02" x2="37.041" y2="46.02"/>
	<rect x="42.541" y="30.02" fill="none" stroke="#FFFFFF" stroke-width="2" stroke-miterlimit="10" width="6" height="12.5"/>
</g>
</svg>
